<?xml version="1.0" encoding="utf-8"?>
<!-- Generator: Adobe Illustrator 22.0.1, SVG Export Plug-In . SVG Version: 6.00 Build 0)  -->
<svg version="1.1" id="Layer_1" fill="currentColor" stroke="currentColor" xmlns="http://www.w3.org/2000/svg" xmlns:xlink="http://www.w3.org/1999/xlink" x="0px" y="0px"
	 viewBox="0 0 800 800" style="enable-background:new 0 0 800 800;" xml:space="preserve">
<path class="st0" d="M600,400h0.3 M400,400h0.3 M200,400h0.3 M433.3,400c0,18.4-14.9,33.3-33.3,33.3c-18.4,0-33.3-14.9-33.3-33.3
	c0-18.4,14.9-33.3,33.3-33.3C418.4,366.7,433.3,381.6,433.3,400z M633.3,400c0,18.4-14.9,33.3-33.3,33.3
	c-18.4,0-33.3-14.9-33.3-33.3c0-18.4,14.9-33.3,33.3-33.3C618.4,366.7,633.3,381.6,633.3,400z M233.3,400
	c0,18.4-14.9,33.3-33.3,33.3s-33.3-14.9-33.3-33.3c0-18.4,14.9-33.3,33.3-33.3S233.3,381.6,233.3,400z"/>
</svg>
