<?xml version="1.0" encoding="utf-8"?>
<!-- Generator: Adobe Illustrator 22.0.1, SVG Export Plug-In . SVG Version: 6.00 Build 0)  -->
<svg version="1.1" id="Layer_1" fill="currentColor" xmlns="http://www.w3.org/2000/svg" xmlns:xlink="http://www.w3.org/1999/xlink" x="0px" y="0px"
	 viewBox="0 0 800 800" style="enable-background:new 0 0 800 800;" xml:space="preserve">
<path d="M684.5,115.5C635.7,66.7,557.1,66.7,400,66.7c-157.1,0-235.7,0-284.5,48.8C66.7,164.3,66.7,242.9,66.7,400
	c0,157.1,0,235.7,48.8,284.5c48.8,48.8,127.4,48.8,284.5,48.8c157.1,0,235.7,0,284.5-48.8c48.8-48.8,48.8-127.4,48.8-284.5
	C733.3,242.9,733.3,164.3,684.5,115.5z M282.3,349c9.8-9.8,25.6-9.8,35.4,0l57.3,57.3v-173c0-13.8,11.2-25,25-25s25,11.2,25,25v173
	l57.3-57.3c9.8-9.8,25.6-9.8,35.4,0c9.8,9.8,9.8,25.6,0,35.4l-100,100c-4.7,4.7-11,7.3-17.7,7.3s-13-2.6-17.7-7.3l-100-100
	C272.6,374.6,272.6,358.8,282.3,349z M533.3,591.7H266.7c-13.8,0-25-11.2-25-25c0-13.8,11.2-25,25-25h266.7c13.8,0,25,11.2,25,25
	C558.3,580.5,547.1,591.7,533.3,591.7z"/>
</svg>
