<?xml version="1.0" encoding="utf-8"?>
<!-- Generator: Adobe Illustrator 22.0.1, SVG Export Plug-In . SVG Version: 6.00 Build 0)  -->
<svg version="1.1" id="Layer_1" xmlns="http://www.w3.org/2000/svg" xmlns:xlink="http://www.w3.org/1999/xlink" x="0px" y="0px"
	 viewBox="0 0 1024 1024" style="enable-background:new 0 0 1024 1024;" xml:space="preserve">
<style type="text/css">
	.st0{display:none;fill:#9981C9;}
	.st1{fill:#FFFFFF;}
	.st2{font-family:'TradeGothic-BoldCondTwenty';}
	.st3{font-size:230px;}
	.st4{letter-spacing:-11;}
	.st5{display:none;}
	.st6{display:inline;fill:#FFFFFF;}
	.st7{display:inline;}
	.st8{display:none;fill:#FFFFFF;}
</style>
<rect x="-12.893" y="-12.893" class="st0" width="1050.562" height="1050.562"/>
<text transform="matrix(1 0 0 1 101.4273 555.9066)" class="st1 st2 st3 st4">Mesmerize</text>
<text transform="matrix(1 0 0 1 67.7197 670.2665)" class="st5"><tspan x="0" y="0" class="st6 st2 st3">Me</tspan><tspan x="242.645" y="0" class="st7 st2 st3">s</tspan><tspan x="332.113" y="0" class="st6 st2 st3">m</tspan><tspan x="485.521" y="0" class="st7 st2 st3">e</tspan><tspan x="587.638" y="0" class="st6 st2 st3">rize</tspan></text>
<text transform="matrix(1 0 0 1 551.9883 662.011)" class="st8 st2 st3">o</text>
<text transform="matrix(1 0 0 1 98.5063 520.0417)" class="st5"><tspan x="0" y="0" class="st6 st2 st3">Mem</tspan><tspan x="396.053" y="0" class="st7 st2 st3">o</tspan><tspan x="498.17" y="0" class="st6 st2 st3">rize</tspan></text>
<text transform="matrix(1 0 0 1 292.685 700.0897)" class="st8 st2 st3">s</text>
<text transform="matrix(1 0 0 1 494.6738 700.0895)" class="st8 st2 st3">e</text>
<polygon class="st8" points="337.268,536.551 321.685,563.542 352.852,563.542 "/>
<polygon class="st8" points="545.435,536.551 529.852,563.542 561.018,563.542 "/>
</svg>
