<?xml version="1.0" encoding="utf-8"?>
<!-- Generator: Adobe Illustrator 22.0.1, SVG Export Plug-In . SVG Version: 6.00 Build 0)  -->
<svg version="1.1" id="Layer_1" fill="currentColor" xmlns="http://www.w3.org/2000/svg" xmlns:xlink="http://www.w3.org/1999/xlink" x="0px" y="0px"
	 viewBox="0 0 800 800" style="enable-background:new 0 0 800 800;" xml:space="preserve">
<path class="st0" d="M148.9,342.2c0.3,2.4,0.5,4.8,0.8,7.2l4.2,37.7c2.9,26.5,5.5,49.4,9.9,67.7c4.8,19.7,12.7,38.3,29.1,53
	c16.5,14.7,35.8,20.5,55.9,23.1c18.7,2.4,41.8,2.4,68.4,2.4h178.4c18.3,0,34.4,0,47.8-1.4c14.6-1.5,28.8-4.8,42.4-13
	c13.6-8.2,23.2-19.2,31.3-31.4c7.5-11.3,15-25.5,23.6-41.6l83-156.7c29.4-55.6-10.9-122.6-73.8-122.6H313.3c-32.8,0-60.8,0-83,3.1
	c-11.2,1.6-22.2,4.1-32.5,8.4L193,135c-4.3-38.9-37.2-68.3-76.3-68.3H100c-18.4,0-33.3,14.9-33.3,33.3c0,18.4,14.9,33.3,33.3,33.3
	h16.7c5.2,0,9.5,3.9,10.1,9L148.9,342.2z"/>
<path class="st0" d="M466.7,650c0-46,37.3-83.3,83.3-83.3c46,0,83.3,37.3,83.3,83.3c0,46-37.3,83.3-83.3,83.3
	C504,733.3,466.7,696,466.7,650z"/>
<path class="st0" d="M166.7,650c0-46,37.3-83.3,83.3-83.3s83.3,37.3,83.3,83.3c0,46-37.3,83.3-83.3,83.3S166.7,696,166.7,650z"/>
</svg>
