<?xml version="1.0" encoding="utf-8"?>
<!-- Generator: Adobe Illustrator 22.0.1, SVG Export Plug-In . SVG Version: 6.00 Build 0)  -->
<svg version="1.1" id="Layer_1" xmlns="http://www.w3.org/2000/svg" xmlns:xlink="http://www.w3.org/1999/xlink" x="0px" y="0px"
	 viewBox="0 0 800 800" style="enable-background:new 0 0 800 800;" xml:space="preserve">
<style type="text/css">
	.st0{stroke:#000000;stroke-width:36;stroke-miterlimit:10;}
	.st1{fill-opacity:0;}
</style>
<title>uninstall-line</title>
<path class="st0" d="M250.9,593.8c8.7,8.6,22.7,8.6,31.3,0L400,477.6l117.8,116.2c9.4,7.9,23.4,6.7,31.3-2.6
	c7.1-8.4,7-20.6-0.2-28.9L431.6,446.4l117.3-115.8c8.7-8.7,8.8-22.7,0.1-31.4c-8.7-8.7-22.7-8.8-31.4-0.1l0,0L400,415.1L282.2,298.9
	c-8.7-8.7-22.8-8.6-31.4,0.1c-8.7,8.7-8.6,22.8,0.1,31.4l0,0l117.3,115.8l-117.1,116c-8.8,8.6-8.9,22.7-0.4,31.4
	C250.8,593.7,250.8,593.7,250.9,593.8z"/>
<path class="st0" d="M687.1,177.8H590c-12.3,0-22.2,9.9-22.2,22.2c0,12.3,9.9,22.2,22.2,22.2h98.9v444.4H111.1V222.2h97.3
	c12.3,0,22.2-9.9,22.2-22.2c0-12.3-9.9-22.2-22.2-22.2h-95.6c-24.5-1-45.2,18.1-46.2,42.6c0,0.6,0,1.2,0,1.8v444.4
	c0,24.5,19.9,44.5,44.4,44.5c0.6,0,1.2,0,1.8,0h574.2c24.5,1,45.2-18.1,46.2-42.6c0-0.6,0-1.2,0-1.8V222.2
	c0-24.5-19.9-44.5-44.4-44.5C688.3,177.7,687.7,177.8,687.1,177.8z"/>
<rect class="st1" width="800" height="800"/>
</svg>
