<?xml version="1.0" encoding="UTF-8" standalone="no"?>
<svg width="1205" height="638" viewBox="3 3 673 358" version="1.1" xmlns="http://www.w3.org/2000/svg">
<g xmlns="http://www.w3.org/2000/svg" stroke="#000" id="g260">
    <g fill="#c0ffff" id="NG">
      <rect x="645" y="145" width="30" height="30" id="36"/>
      <rect x="645" y="180" width="30" height="30" id="54"/>
      <rect x="645" y="215" width="30" height="30" id="86"/>
      <rect x="645" y="75" width="30" height="30" id="10"/>
      <rect x="645" y="110" width="30" height="30" id="18"/>
      <rect x="645" y="40" width="30" height="30" id="2"/>
      <rect x="645" y="250" width="30" height="30" id="118"/>
    </g>
    <g fill="#cccc99" id="MOID">
      <rect x="505" y="145" width="30" height="30" id="32"/>
      <rect x="540" y="145" width="30" height="30" id="33"/>
      <rect x="540" y="180" width="30" height="30" id="51"/>
      <rect x="575" y="180" width="30" height="30" id="52"/>
      <rect x="470" y="75" width="30" height="30" id="5"/>
      <rect x="505" y="110" width="30" height="30" id="14"/>
    </g>
    <g fill="#cccccc" id="PTM">
      <rect x="470" y="145" width="30" height="30" id="31"/>
      <rect x="470" y="180" width="30" height="30" id="49"/>
      <rect x="470" y="215" width="30" height="30" id="81"/>
      <rect x="505" y="180" width="30" height="30" id="50"/>
      <rect x="505" y="215" width="30" height="30" id="82"/>
      <rect x="540" y="215" width="30" height="30" id="83"/>
      <rect x="575" y="215" width="30" height="30" id="84"/>
      <rect x="470" y="110" width="30" height="30" id="13"/>
      <rect x="470" y="250" width="30" height="30" id="113"/>
      <rect x="505" y="250" width="30" height="30" id="114"/>
      <rect x="540" y="250" width="30" height="30" id="115"/>
      <rect x="575" y="250" width="30" height="30" id="116"/>
    </g>
    <g fill="#ffff99" id="HAL">
      <rect x="610" y="75" width="30" height="30" id="9"/>
      <rect x="610" y="110" width="30" height="30" id="17"/>
      <rect x="610" y="145" width="30" height="30" id="35"/>
      <rect x="610" y="180" width="30" height="30" id="53"/>
      <rect x="610" y="215" width="30" height="30" id="85"/>
      <rect x="610" y="250" width="30" height="30" id="117"/>
    </g>
    <g fill="#ff99cc" id="AN">
      
      <rect x="120" y="330" width="30" height="30" id="89"/>
      <rect x="155" y="330" width="30" height="30" id="90"/>
      <rect x="190" y="330" width="30" height="30" id="91"/>
      <rect x="225" y="330" width="30" height="30" id="92"/>
      <rect x="260" y="330" width="30" height="30" id="93"/>
      <rect x="295" y="330" width="30" height="30" id="94"/>
      <rect x="330" y="330" width="30" height="30" id="95"/>
      <rect x="365" y="330" width="30" height="30" id="96"/>
      <rect x="400" y="330" width="30" height="30" id="97"/>
      <rect x="435" y="330" width="30" height="30" id="98"/>
      <rect x="470" y="330" width="30" height="30" id="99"/>
      <rect x="505" y="330" width="30" height="30" id="100"/>
      <rect x="540" y="330" width="30" height="30" id="101"/>
      <rect x="575" y="330" width="30" height="30" id="102"/>
      <rect x="120" y="250" width="30" height="30" id="103"/>
    </g>
    <g fill="#ffbfff" id="LN">
      <rect x="120" y="295" width="30" height="30" id="57"/>
      <rect x="155" y="295" width="30" height="30" id="58"/>
      <rect x="190" y="295" width="30" height="30" id="59"/>
      <rect x="225" y="295" width="30" height="30" id="60"/>
      <rect x="260" y="295" width="30" height="30" id="61"/>
      <rect x="295" y="295" width="30" height="30" id="62"/>
      <rect x="330" y="295" width="30" height="30" id="63"/>
      <rect x="365" y="295" width="30" height="30" id="64"/>
      <rect x="400" y="295" width="30" height="30" id="65"/>
      <rect x="435" y="295" width="30" height="30" id="66"/>
      <rect x="470" y="295" width="30" height="30" id="67"/>
      <rect x="505" y="295" width="30" height="30" id="68"/>
      <rect x="540" y="295" width="30" height="30" id="69"/>
      <rect x="575" y="295" width="30" height="30" id="70"/>
      <rect x="120" y="215" width="30" height="30" id="71"/>
    </g>
    <g fill="#ffc0c0" id="TM">
      <rect x="435" y="145" width="30" height="30" id="30"/>
      <rect x="435" y="180" width="30" height="30" id="48"/>
      <rect x="435" y="215" width="30" height="30" id="80"/>
      <rect x="435" y="250" width="30" height="30" id="112"/>
      <rect x="330" y="250" width="30" height="30" id="109"/>
      <rect x="365" y="250" width="30" height="30" id="110"/>
      <rect x="400" y="250" width="30" height="30" id="111"/>
      <rect x="120" y="145" width="30" height="30" id="21"/>
      <rect x="120" y="180" width="30" height="30" id="39"/>
      <rect x="155" y="145" width="30" height="30" id="22"/>
      <rect x="155" y="180" width="30" height="30" id="40"/>
      <rect x="155" y="215" width="30" height="30" id="72"/>
      <rect x="155" y="250" width="30" height="30" id="104"/>
      <rect x="190" y="145" width="30" height="30" id="23"/>
      <rect x="190" y="180" width="30" height="30" id="41"/>
      <rect x="190" y="215" width="30" height="30" id="73"/>
      <rect x="190" y="250" width="30" height="30" id="105"/>
      <rect x="225" y="145" width="30" height="30" id="24"/>
      <rect x="225" y="180" width="30" height="30" id="42"/>
      <rect x="225" y="215" width="30" height="30" id="74"/>
      <rect x="225" y="250" width="30" height="30" id="106"/>
      <rect x="260" y="145" width="30" height="30" id="25"/>
      <rect x="260" y="180" width="30" height="30" id="43"/>
      <rect x="260" y="215" width="30" height="30" id="75"/>
      <rect x="260" y="250" width="30" height="30" id="107"/>
      <rect x="295" y="145" width="30" height="30" id="26"/>
      <rect x="295" y="180" width="30" height="30" id="44"/>
      <rect x="295" y="215" width="30" height="30" id="76"/>
      <rect x="295" y="250" width="30" height="30" id="108"/>
      <rect x="330" y="145" width="30" height="30" id="27"/>
      <rect x="330" y="180" width="30" height="30" id="45"/>
      <rect x="330" y="215" width="30" height="30" id="77"/>
      <rect x="365" y="145" width="30" height="30" id="28"/>
      <rect x="365" y="180" width="30" height="30" id="46"/>
      <rect x="365" y="215" width="30" height="30" id="78"/>
      <rect x="400" y="145" width="30" height="30" id="29"/>
      <rect x="400" y="180" width="30" height="30" id="47"/>
      <rect x="400" y="215" width="30" height="30" id="79"/>
    </g>
    <g fill="#ff9d9d" id="AM">
      <rect x="40" y="75" width="30" height="30" id="3"/>
      <rect x="40" y="110" width="30" height="30" id="11"/>
      <rect x="40" y="145" width="30" height="30" id="19"/>
      <rect x="40" y="180" width="30" height="30" id="37"/>
      <rect x="40" y="215" width="30" height="30" id="55"/>
      <rect x="40" y="250" width="30" height="30" id="87"/>
    </g>
    <g fill="#ffdead" id="AEM">
      <rect x="75" y="75" width="30" height="30" id="4"/>
      <rect x="75" y="110" width="30" height="30" id="12"/>
      <rect x="75" y="145" width="30" height="30" id="20"/>
      <rect x="75" y="180" width="30" height="30" id="38"/>
      <rect x="75" y="215" width="30" height="30" id="56"/>
      <rect x="75" y="250" width="30" height="30" id="88"/>
    </g>
    <g fill="#a0ffa0" id="NM">
      <rect x="40" y="40" width="30" height="30" id="1"/>
      <rect x="540" y="75" width="30" height="30" id="7"/>
      <rect x="575" y="75" width="30" height="30" id="8"/>
      <rect x="575" y="145" width="30" height="30" id="34"/>
      <rect x="505" y="75" width="30" height="30" id="6"/>
      <rect x="540" y="110" width="30" height="30" id="15"/>
      <rect x="575" y="110" width="30" height="30" id="16"/>
    </g>
  </g>
<g font-family="Noto Sans" font-size="9" text-anchor="middle">
<g font-size="14">
<g transform="translate(20)">
<text y="58">1</text>
<text y="93">2</text>
<text y="128">3</text>
<text y="163">4</text>
<text y="198">5</text>
<text y="233">6</text>
<text y="268">7</text>
</g>
<g transform="translate(0,22)">
<g transform="translate(55)">
<text>1</text>
<text y="32">1<tspan x="0" dy="11.5">H</tspan></text>
<text y="67">3<tspan x="0" dy="11.5">Li</tspan></text>
<text y="102">11<tspan x="0" dy="11.5">Na</tspan></text>
<text y="137">19<tspan x="0" dy="11.5">K</tspan></text>
<text y="172">37<tspan x="0" dy="11.5">Rb</tspan></text>
<text y="207">55<tspan x="0" dy="11.5">Cs</tspan></text>
<text y="242">87<tspan x="0" dy="11.5">Fr</tspan></text>
</g>
<g transform="translate(90)">
<text>2</text>
<text y="67">4<tspan x="0" dy="11.5">Be</tspan></text>
<text y="102">12<tspan x="0" dy="11.5">Mg</tspan></text>
<text y="137">20<tspan x="0" dy="11.5">Ca</tspan></text>
<text y="172">38<tspan x="0" dy="11.5">Sr</tspan></text>
<text y="207">56<tspan x="0" dy="11.5">Ba</tspan></text>
<text y="242">88<tspan x="0" dy="11.5">Ra</tspan></text>
</g>
<g transform="translate(112)">
<text y="208">*</text>
<text y="243">*<tspan x="0" dy="12">*</tspan></text>
<text y="288">*</text>
<text y="323">*<tspan x="0" dy="12">*</tspan></text>
</g>
<g transform="translate(135)">
<text>3</text>
<text y="137">21<tspan x="0" dy="11.5">Sc</tspan></text>
<text y="172">39<tspan x="0" dy="11.5">Y</tspan></text>
<text y="207">71<tspan x="0" dy="11.5">Lu</tspan></text>
<text y="242">103<tspan x="0" dy="11.5">Lr</tspan></text>
<text y="287">57<tspan x="0" dy="11.5">La</tspan></text>
<text y="322">89<tspan x="0" dy="11.5">Ac</tspan></text>
</g>
<g transform="translate(170)">
<text>4</text>
<text y="137">22<tspan x="0" dy="11.5">Ti</tspan></text>
<text y="172">40<tspan x="0" dy="11.5">Zr</tspan></text>
<text y="207">72<tspan x="0" dy="11.5">Hf</tspan></text>
<text y="242">104<tspan x="0" dy="11.5">Rf</tspan></text>
<text y="287">58<tspan x="0" dy="11.5">Ce</tspan></text>
<text y="322">90<tspan x="0" dy="11.5">Th</tspan></text>
</g>
<g transform="translate(205)">
<text>5</text>
<text y="137">23<tspan x="0" dy="11.5">V</tspan></text>
<text y="172">41<tspan x="0" dy="11.5">Nb</tspan></text>
<text y="207">73<tspan x="0" dy="11.5">Ta</tspan></text>
<text y="242">105<tspan x="0" dy="11.5">Db</tspan></text>
<text y="287">59<tspan x="0" dy="11.5">Pr</tspan></text>
<text y="322">91<tspan x="0" dy="11.5">Pa</tspan></text>
</g>
<g transform="translate(240)">
<text>6</text>
<text y="137">24<tspan x="0" dy="11.5">Cr</tspan></text>
<text y="172">42<tspan x="0" dy="11.5">Mo</tspan></text>
<text y="207">74<tspan x="0" dy="11.5">W</tspan></text>
<text y="242">106<tspan x="0" dy="11.5">Sg</tspan></text>
<text y="287">60<tspan x="0" dy="11.5">Nd</tspan></text>
<text y="322">92<tspan x="0" dy="11.5">U</tspan></text>
</g>
<g transform="translate(275)">
<text>7</text>
<text y="137">25<tspan x="0" dy="11.5">Mn</tspan></text>
<text y="172">43<tspan x="0" dy="11.5">Tc</tspan></text>
<text y="207">75<tspan x="0" dy="11.5">Re</tspan></text>
<text y="242">107<tspan x="0" dy="11.5">Bh</tspan></text>
<text y="287">61<tspan x="0" dy="11.5">Pm</tspan></text>
<text y="322">93<tspan x="0" dy="11.5">Np</tspan></text>
</g>
<g transform="translate(310)">
<text>8</text>
<text y="137">26<tspan x="0" dy="11.5">Fe</tspan></text>
<text y="172">44<tspan x="0" dy="11.5">Ru</tspan></text>
<text y="207">76<tspan x="0" dy="11.5">Os</tspan></text>
<text y="242">108<tspan x="0" dy="11.5">Hs</tspan></text>
<text y="287">62<tspan x="0" dy="11.5">Sm</tspan></text>
<text y="322">94<tspan x="0" dy="11.5">Pu</tspan></text>
</g>
<g transform="translate(345)">
<text>9</text>
<text y="137">27<tspan x="0" dy="11.5">Co</tspan></text>
<text y="172">45<tspan x="0" dy="11.5">Rh</tspan></text>
<text y="207">77<tspan x="0" dy="11.5">Ir</tspan></text>
<text y="242">109<tspan x="0" dy="11.5">Mt</tspan></text>
<text y="287">63<tspan x="0" dy="11.5">Eu</tspan></text>
<text y="322">95<tspan x="0" dy="11.5">Am</tspan></text>
</g>
<g transform="translate(380)">
<text>10</text>
<text y="137">28<tspan x="0" dy="11.5">Ni</tspan></text>
<text y="172">46<tspan x="0" dy="11.5">Pd</tspan></text>
<text y="207">78<tspan x="0" dy="11.5">Pt</tspan></text>
<text y="242">110<tspan x="0" dy="11.5">Ds</tspan></text>
<text y="287">64<tspan x="0" dy="11.5">Gd</tspan></text>
<text y="322">96<tspan x="0" dy="11.5">Cm</tspan></text>
</g>
<g transform="translate(415)">
<text>11</text>
<text y="137">29<tspan x="0" dy="11.5">Cu</tspan></text>
<text y="172">47<tspan x="0" dy="11.5">Ag</tspan></text>
<text y="207">79<tspan x="0" dy="11.5">Au</tspan></text>
<text y="242">111<tspan x="0" dy="11.5">Rg</tspan></text>
<text y="287">65<tspan x="0" dy="11.5">Tb</tspan></text>
<text y="322">97<tspan x="0" dy="11.5">Bk</tspan></text>
</g>
<g transform="translate(450)">
<text>12</text>
<text y="137">30<tspan x="0" dy="11.5">Zn</tspan></text>
<text y="172">48<tspan x="0" dy="11.5">Cd</tspan></text>
<text y="207">80<tspan x="0" dy="11.5">Hg</tspan></text>
<text y="242">112<tspan x="0" dy="11.5">Cn</tspan></text>
<text y="287">66<tspan x="0" dy="11.5">Dy</tspan></text>
<text y="322">98<tspan x="0" dy="11.5">Cf</tspan></text>
</g>
<g transform="translate(485)">
<text>13</text>
<text y="67">5<tspan x="0" dy="11.5">B</tspan></text>
<text y="102">13<tspan x="0" dy="11.5">Al</tspan></text>
<text y="137">31<tspan x="0" dy="11.5">Ga</tspan></text>
<text y="172">49<tspan x="0" dy="11.5">In</tspan></text>
<text y="207">81<tspan x="0" dy="11.5">Tl</tspan></text>
<text y="242">113<tspan x="0" dy="11.5">Nh</tspan></text>
<text y="287">67<tspan x="0" dy="11.5">Ho</tspan></text>
<text y="322">99<tspan x="0" dy="11.5">Es</tspan></text>
</g>
<g transform="translate(520)">
<text>14</text>
<text y="67">6<tspan x="0" dy="11.5">C</tspan></text>
<text y="102">14<tspan x="0" dy="11.5">Si</tspan></text>
<text y="137">32<tspan x="0" dy="11.5">Ge</tspan></text>
<text y="172">50<tspan x="0" dy="11.5">Sn</tspan></text>
<text y="207">82<tspan x="0" dy="11.5">Pb</tspan></text>
<text y="242">114<tspan x="0" dy="11.5">Fl</tspan></text>
<text y="287">68<tspan x="0" dy="11.5">Er</tspan></text>
<text y="322">100<tspan x="0" dy="11.5">Fm</tspan></text>
</g>
<g transform="translate(555)">
<text>15</text>
<text y="67">7<tspan x="0" dy="11.5">N</tspan></text>
<text y="102">15<tspan x="0" dy="11.5">P</tspan></text>
<text y="137">33<tspan x="0" dy="11.5">As</tspan></text>
<text y="172">51<tspan x="0" dy="11.5">Sb</tspan></text>
<text y="207">83<tspan x="0" dy="11.5">Bi</tspan></text>
<text y="242">115<tspan x="0" dy="11.5">Mc</tspan></text>
<text y="287">69<tspan x="0" dy="11.5">Tm</tspan></text>
<text y="322">101<tspan x="0" dy="11.5">Md</tspan></text>
</g>
<g transform="translate(590)">
<text>16</text>
<text y="67">8<tspan x="0" dy="11.5">O</tspan></text>
<text y="102">16<tspan x="0" dy="11.5">S</tspan></text>
<text y="137">34<tspan x="0" dy="11.5">Se</tspan></text>
<text y="172">52<tspan x="0" dy="11.5">Te</tspan></text>
<text y="207">84<tspan x="0" dy="11.5">Po</tspan></text>
<text y="242">116<tspan x="0" dy="11.5">Lv</tspan></text>
<text y="287">70<tspan x="0" dy="11.5">Yb</tspan></text>
<text y="322">102<tspan x="0" dy="11.5">No</tspan></text>
</g>
<g transform="translate(625)">
<text>17</text>
<text y="67">9<tspan x="0" dy="11.5">F</tspan></text>
<text y="102">17<tspan x="0" dy="11.5">Cl</tspan></text>
<text y="137">35<tspan x="0" dy="11.5">Br</tspan></text>
<text y="172">53<tspan x="0" dy="11.5">I</tspan></text>
<text y="207">85<tspan x="0" dy="11.5">At</tspan></text>
<text y="242">117<tspan x="0" dy="11.5">Ts</tspan></text>
</g>
<g transform="translate(660)">
<text>18</text>
<text y="32">2<tspan x="0" dy="11.5">He</tspan></text>
<text y="67">10<tspan x="0" dy="11.5">Ne</tspan></text>
<text y="102">18<tspan x="0" dy="11.5">Ar</tspan></text>
<text y="137">36<tspan x="0" dy="11.5">Kr</tspan></text>
<text y="172">54<tspan x="0" dy="11.5">Xe</tspan></text>
<text y="207">86<tspan x="0" dy="11.5">Rn</tspan></text>
<text y="242">118<tspan x="0" dy="11.5">Og</tspan></text>
</g>
</g>
</g>
</g>
</svg>